# xmcd
#
# Track frame offsets:
#	150
#	10742
#	60240
#	82522
#	122060
#	142260
#	174505
#	193435
#
# Disc length: 2964 seconds
#
# Revision: 1
# Processed by: cddbd v1.5.1PL0 Copyright (c) Steve Scherf et al.
# Submitted via: CDex 1.50Beta5
#
DISCID=630b9208
DTITLE=ももいろシスターズ - ももいろシスターズ HIGH SCHOOL Version
DYEAR=1900
DGENRE=Unclassifiable
TTITLE0=アイドルはどこへ行ったの<SHORT VERSION>
TTITLE1=ももドラ「桃子の凄腕繁盛記」
TTITLE2=WARNING
TTITLE3=ももドラ「萌子の夏休み日記 地獄篇」
TTITLE4=ときめき☆ポーラスター
TTITLE5=ももドラ「みきの今夜はトーク・ハード」
TTITLE6=NO EXIT
TTITLE7=ももドラEX「がーるず・いん・おふぃす」
EXTD=
EXTT0=
EXTT1=
EXTT2=
EXTT3=
EXTT4=
EXTT5=
EXTT6=
EXTT7=
PLAYORDER=
